<mxfile host="app.diagrams.net" modified="2024-05-04T11:56:33.579Z" agent="Mozilla/5.0 (Windows NT 10.0; Win64; x64) AppleWebKit/537.36 (KHTML, like Gecko) Chrome/124.0.0.0 Safari/537.36" etag="Fln-eXN0g--GM1v43Pfl" version="24.0.4" type="device">
  <diagram name="Page-1" id="c9db0220-8083-56f3-ca83-edcdcd058819">
    <mxGraphModel dx="1775" dy="948" grid="1" gridSize="10" guides="1" tooltips="1" connect="1" arrows="1" fold="1" page="1" pageScale="1.5" pageWidth="1169" pageHeight="827" background="#ffffff" math="0" shadow="0">
      <root>
        <mxCell id="0" style=";html=1;" />
        <mxCell id="1" style=";html=1;" parent="0" />
        <mxCell id="KU8lQrl2UFLvdZG20fSm-415" value="" style="rounded=0;whiteSpace=wrap;html=1;" parent="1" vertex="1">
          <mxGeometry x="2540" y="1670" width="300" height="115" as="geometry" />
        </mxCell>
        <mxCell id="KU8lQrl2UFLvdZG20fSm-9" value="" style="group" parent="1" vertex="1" connectable="0">
          <mxGeometry x="70" y="110" width="800" height="450" as="geometry" />
        </mxCell>
        <mxCell id="KU8lQrl2UFLvdZG20fSm-5" value="" style="rounded=0;whiteSpace=wrap;html=1;" parent="KU8lQrl2UFLvdZG20fSm-9" vertex="1">
          <mxGeometry width="800" height="450" as="geometry" />
        </mxCell>
        <mxCell id="KU8lQrl2UFLvdZG20fSm-6" value="" style="endArrow=none;html=1;rounded=0;entryX=1;entryY=0.111;entryDx=0;entryDy=0;entryPerimeter=0;" parent="KU8lQrl2UFLvdZG20fSm-9" target="KU8lQrl2UFLvdZG20fSm-5" edge="1">
          <mxGeometry width="50" height="50" relative="1" as="geometry">
            <mxPoint y="50.05000000000001" as="sourcePoint" />
            <mxPoint x="400" y="-40" as="targetPoint" />
          </mxGeometry>
        </mxCell>
        <mxCell id="KU8lQrl2UFLvdZG20fSm-7" value="HOME" style="text;html=1;align=center;verticalAlign=middle;resizable=0;points=[];autosize=1;strokeColor=none;fillColor=none;" parent="KU8lQrl2UFLvdZG20fSm-9" vertex="1">
          <mxGeometry x="600" y="10" width="60" height="30" as="geometry" />
        </mxCell>
        <mxCell id="KU8lQrl2UFLvdZG20fSm-8" value="MY DECKS" style="text;html=1;align=center;verticalAlign=middle;resizable=0;points=[];autosize=1;strokeColor=none;fillColor=none;" parent="KU8lQrl2UFLvdZG20fSm-9" vertex="1">
          <mxGeometry x="695" y="10" width="90" height="30" as="geometry" />
        </mxCell>
        <mxCell id="KU8lQrl2UFLvdZG20fSm-231" value="" style="rounded=1;whiteSpace=wrap;html=1;" parent="KU8lQrl2UFLvdZG20fSm-9" vertex="1">
          <mxGeometry x="450" y="130" width="260" height="160" as="geometry" />
        </mxCell>
        <mxCell id="KU8lQrl2UFLvdZG20fSm-232" value="Tree" style="text;html=1;align=center;verticalAlign=middle;resizable=0;points=[];autosize=1;strokeColor=none;fillColor=none;fontStyle=1;fontSize=20;" parent="KU8lQrl2UFLvdZG20fSm-9" vertex="1">
          <mxGeometry x="550" y="175" width="60" height="40" as="geometry" />
        </mxCell>
        <mxCell id="KU8lQrl2UFLvdZG20fSm-233" value="Árbol" style="text;html=1;align=center;verticalAlign=middle;resizable=0;points=[];autosize=1;strokeColor=none;fillColor=none;fontSize=16;" parent="KU8lQrl2UFLvdZG20fSm-9" vertex="1">
          <mxGeometry x="550" y="230" width="60" height="30" as="geometry" />
        </mxCell>
        <mxCell id="KU8lQrl2UFLvdZG20fSm-234" value="" style="shape=image;html=1;verticalAlign=top;verticalLabelPosition=bottom;labelBackgroundColor=#FF0000;imageAspect=0;aspect=fixed;image=https://cdn0.iconfinder.com/data/icons/google-material-design-3-0/48/ic_delete_forever_48px-128.png;fontColor=#FF0000;imageBackground=default;fillStyle=solid;imageBorder=none;labelBorderColor=none;" parent="KU8lQrl2UFLvdZG20fSm-9" vertex="1">
          <mxGeometry x="650" y="150" width="30" height="30" as="geometry" />
        </mxCell>
        <mxCell id="KU8lQrl2UFLvdZG20fSm-346" value="" style="endArrow=none;html=1;rounded=0;strokeColor=#808080;strokeWidth=3;" parent="KU8lQrl2UFLvdZG20fSm-9" edge="1">
          <mxGeometry width="50" height="50" relative="1" as="geometry">
            <mxPoint x="600" y="350" as="sourcePoint" />
            <mxPoint x="58" y="350.0018181818177" as="targetPoint" />
          </mxGeometry>
        </mxCell>
        <mxCell id="gzY5htLGLgs3vlSBRK8R-4" value="" style="group" vertex="1" connectable="0" parent="KU8lQrl2UFLvdZG20fSm-9">
          <mxGeometry x="100" y="130" width="260" height="160" as="geometry" />
        </mxCell>
        <mxCell id="gzY5htLGLgs3vlSBRK8R-5" value="" style="rounded=1;whiteSpace=wrap;html=1;" vertex="1" parent="gzY5htLGLgs3vlSBRK8R-4">
          <mxGeometry width="260" height="160" as="geometry" />
        </mxCell>
        <mxCell id="gzY5htLGLgs3vlSBRK8R-6" value="Verbs" style="text;html=1;align=center;verticalAlign=middle;resizable=0;points=[];autosize=1;strokeColor=none;fillColor=none;fontStyle=1;fontSize=20;" vertex="1" parent="gzY5htLGLgs3vlSBRK8R-4">
          <mxGeometry x="20" y="15" width="80" height="40" as="geometry" />
        </mxCell>
        <mxCell id="gzY5htLGLgs3vlSBRK8R-7" value="Verbs for studying..." style="text;html=1;align=center;verticalAlign=middle;resizable=0;points=[];autosize=1;strokeColor=none;fillColor=none;fontSize=16;" vertex="1" parent="gzY5htLGLgs3vlSBRK8R-4">
          <mxGeometry x="25" y="70" width="160" height="30" as="geometry" />
        </mxCell>
        <mxCell id="gzY5htLGLgs3vlSBRK8R-8" value="&lt;b&gt;&lt;font color=&quot;#007fff&quot;&gt;20 &lt;/font&gt;| &lt;font color=&quot;#ff0000&quot;&gt;1 &lt;/font&gt;| &lt;font color=&quot;#00cc00&quot;&gt;6&lt;/font&gt;&lt;/b&gt;" style="text;html=1;align=center;verticalAlign=middle;resizable=0;points=[];autosize=1;strokeColor=none;fillColor=none;" vertex="1" parent="gzY5htLGLgs3vlSBRK8R-4">
          <mxGeometry x="30" y="110" width="70" height="30" as="geometry" />
        </mxCell>
        <mxCell id="gzY5htLGLgs3vlSBRK8R-9" value="" style="shape=image;html=1;verticalAlign=top;verticalLabelPosition=bottom;labelBackgroundColor=#FF0000;imageAspect=0;aspect=fixed;image=https://cdn0.iconfinder.com/data/icons/google-material-design-3-0/48/ic_delete_forever_48px-128.png;fontColor=#FF0000;imageBackground=default;fillStyle=solid;imageBorder=none;labelBorderColor=none;" vertex="1" parent="gzY5htLGLgs3vlSBRK8R-4">
          <mxGeometry x="200" y="20" width="30" height="30" as="geometry" />
        </mxCell>
        <mxCell id="KU8lQrl2UFLvdZG20fSm-13" value="" style="group" parent="1" vertex="1" connectable="0">
          <mxGeometry x="1080" y="95" width="800" height="450" as="geometry" />
        </mxCell>
        <mxCell id="KU8lQrl2UFLvdZG20fSm-1" value="" style="rounded=0;whiteSpace=wrap;html=1;" parent="KU8lQrl2UFLvdZG20fSm-13" vertex="1">
          <mxGeometry width="800" height="450" as="geometry" />
        </mxCell>
        <mxCell id="KU8lQrl2UFLvdZG20fSm-2" value="" style="endArrow=none;html=1;rounded=0;entryX=1;entryY=0.111;entryDx=0;entryDy=0;entryPerimeter=0;" parent="KU8lQrl2UFLvdZG20fSm-13" target="KU8lQrl2UFLvdZG20fSm-1" edge="1">
          <mxGeometry width="50" height="50" relative="1" as="geometry">
            <mxPoint y="50.05000000000001" as="sourcePoint" />
            <mxPoint x="400" y="-40" as="targetPoint" />
          </mxGeometry>
        </mxCell>
        <mxCell id="KU8lQrl2UFLvdZG20fSm-3" value="HOME" style="text;html=1;align=center;verticalAlign=middle;resizable=0;points=[];autosize=1;strokeColor=none;fillColor=none;" parent="KU8lQrl2UFLvdZG20fSm-13" vertex="1">
          <mxGeometry x="600" y="10" width="60" height="30" as="geometry" />
        </mxCell>
        <mxCell id="KU8lQrl2UFLvdZG20fSm-4" value="MY DECKS" style="text;html=1;align=center;verticalAlign=middle;resizable=0;points=[];autosize=1;strokeColor=none;fillColor=none;" parent="KU8lQrl2UFLvdZG20fSm-13" vertex="1">
          <mxGeometry x="695" y="10" width="90" height="30" as="geometry" />
        </mxCell>
        <mxCell id="KU8lQrl2UFLvdZG20fSm-10" value="Welcome" style="text;html=1;align=center;verticalAlign=middle;resizable=0;points=[];autosize=1;strokeColor=none;fillColor=none;fontStyle=1;fontSize=29;" parent="KU8lQrl2UFLvdZG20fSm-13" vertex="1">
          <mxGeometry x="325" y="120" width="150" height="50" as="geometry" />
        </mxCell>
        <mxCell id="KU8lQrl2UFLvdZG20fSm-11" value="&lt;h1 style=&quot;font-size: 13px;&quot;&gt;&lt;br style=&quot;&quot;&gt;&lt;/h1&gt;&lt;p&gt;&lt;font style=&quot;font-size: 13px;&quot;&gt;Lorem ipsum dolor sit amet, consectetur adipisicing elit, sed do eiusmod tempor incididunt ut labore et dolore magna aliqua.&lt;/font&gt;&lt;/p&gt;" style="text;html=1;strokeColor=none;fillColor=none;spacing=5;spacingTop=-20;whiteSpace=wrap;overflow=hidden;rounded=0;align=left;" parent="KU8lQrl2UFLvdZG20fSm-13" vertex="1">
          <mxGeometry x="325" y="167.5" width="190" height="115" as="geometry" />
        </mxCell>
        <mxCell id="KU8lQrl2UFLvdZG20fSm-12" value="&lt;font style=&quot;font-size: 13px;&quot;&gt;Start&lt;/font&gt;" style="html=1;shadow=0;dashed=0;shape=mxgraph.bootstrap.rrect;rSize=5;strokeColor=none;strokeWidth=1;fillColor=#0085FC;fontColor=#FFFFFF;whiteSpace=wrap;align=center;verticalAlign=middle;spacingLeft=0;fontStyle=0;fontSize=16;spacing=5;" parent="KU8lQrl2UFLvdZG20fSm-13" vertex="1">
          <mxGeometry x="360" y="300" width="80" height="40" as="geometry" />
        </mxCell>
        <mxCell id="KU8lQrl2UFLvdZG20fSm-14" value="&lt;b&gt;https://flashcards-aibentor.dev&lt;/b&gt;" style="text;html=1;align=center;verticalAlign=middle;resizable=0;points=[];autosize=1;strokeColor=none;fillColor=none;" parent="1" vertex="1">
          <mxGeometry x="1680" y="55" width="200" height="30" as="geometry" />
        </mxCell>
        <mxCell id="KU8lQrl2UFLvdZG20fSm-15" value="&lt;b&gt;&lt;font style=&quot;font-size: 20px;&quot;&gt;Home&lt;/font&gt;&lt;/b&gt;" style="text;html=1;align=center;verticalAlign=middle;resizable=0;points=[];autosize=1;strokeColor=none;fillColor=none;" parent="1" vertex="1">
          <mxGeometry x="1070" y="50" width="80" height="40" as="geometry" />
        </mxCell>
        <mxCell id="KU8lQrl2UFLvdZG20fSm-31" value="" style="group" parent="1" vertex="1" connectable="0">
          <mxGeometry y="440" width="837" height="630" as="geometry" />
        </mxCell>
        <mxCell id="KU8lQrl2UFLvdZG20fSm-16" value="" style="group" parent="KU8lQrl2UFLvdZG20fSm-31" vertex="1" connectable="0">
          <mxGeometry x="7" y="40" width="830" height="590" as="geometry" />
        </mxCell>
        <mxCell id="KU8lQrl2UFLvdZG20fSm-32" value="" style="group" parent="KU8lQrl2UFLvdZG20fSm-16" vertex="1" connectable="0">
          <mxGeometry x="63" y="130" width="807" height="490" as="geometry" />
        </mxCell>
        <mxCell id="KU8lQrl2UFLvdZG20fSm-33" value="" style="group" parent="KU8lQrl2UFLvdZG20fSm-32" vertex="1" connectable="0">
          <mxGeometry x="7" y="40" width="800" height="450" as="geometry" />
        </mxCell>
        <mxCell id="KU8lQrl2UFLvdZG20fSm-34" value="" style="rounded=0;whiteSpace=wrap;html=1;" parent="KU8lQrl2UFLvdZG20fSm-33" vertex="1">
          <mxGeometry width="800" height="450" as="geometry" />
        </mxCell>
        <mxCell id="KU8lQrl2UFLvdZG20fSm-35" value="" style="endArrow=none;html=1;rounded=0;entryX=1;entryY=0.111;entryDx=0;entryDy=0;entryPerimeter=0;" parent="KU8lQrl2UFLvdZG20fSm-33" target="KU8lQrl2UFLvdZG20fSm-34" edge="1">
          <mxGeometry width="50" height="50" relative="1" as="geometry">
            <mxPoint y="50.05000000000001" as="sourcePoint" />
            <mxPoint x="400" y="-40" as="targetPoint" />
          </mxGeometry>
        </mxCell>
        <mxCell id="KU8lQrl2UFLvdZG20fSm-36" value="HOME" style="text;html=1;align=center;verticalAlign=middle;resizable=0;points=[];autosize=1;strokeColor=none;fillColor=none;" parent="KU8lQrl2UFLvdZG20fSm-33" vertex="1">
          <mxGeometry x="600" y="10" width="60" height="30" as="geometry" />
        </mxCell>
        <mxCell id="KU8lQrl2UFLvdZG20fSm-37" value="MY DECKS" style="text;html=1;align=center;verticalAlign=middle;resizable=0;points=[];autosize=1;strokeColor=none;fillColor=none;" parent="KU8lQrl2UFLvdZG20fSm-33" vertex="1">
          <mxGeometry x="695" y="10" width="90" height="30" as="geometry" />
        </mxCell>
        <mxCell id="KU8lQrl2UFLvdZG20fSm-72" value="My Decks" style="text;html=1;align=center;verticalAlign=middle;resizable=0;points=[];autosize=1;strokeColor=none;fillColor=none;fontStyle=1;fontSize=29;" parent="KU8lQrl2UFLvdZG20fSm-33" vertex="1">
          <mxGeometry x="325" y="60" width="150" height="50" as="geometry" />
        </mxCell>
        <mxCell id="KU8lQrl2UFLvdZG20fSm-73" value="Add decks to start studying" style="text;html=1;align=center;verticalAlign=middle;resizable=0;points=[];autosize=1;strokeColor=none;fillColor=none;fontSize=16;" parent="KU8lQrl2UFLvdZG20fSm-33" vertex="1">
          <mxGeometry x="290" y="210" width="220" height="30" as="geometry" />
        </mxCell>
        <mxCell id="KU8lQrl2UFLvdZG20fSm-74" value="" style="html=1;verticalLabelPosition=bottom;align=center;labelBackgroundColor=#ffffff;verticalAlign=top;strokeWidth=2;strokeColor=#000000;shadow=0;dashed=0;shape=mxgraph.ios7.icons.add;" parent="KU8lQrl2UFLvdZG20fSm-33" vertex="1">
          <mxGeometry x="680" y="370" width="43" height="40" as="geometry" />
        </mxCell>
        <mxCell id="gzY5htLGLgs3vlSBRK8R-52" value="" style="sketch=0;pointerEvents=1;shadow=0;dashed=0;html=1;strokeColor=none;fillColor=#505050;labelPosition=center;verticalLabelPosition=bottom;verticalAlign=top;outlineConnect=0;align=center;shape=mxgraph.office.concepts.settings;" vertex="1" parent="KU8lQrl2UFLvdZG20fSm-33">
          <mxGeometry x="695" y="60" width="48" height="48" as="geometry" />
        </mxCell>
        <mxCell id="gzY5htLGLgs3vlSBRK8R-11" value="&lt;b&gt;&lt;font style=&quot;font-size: 20px;&quot;&gt;MY DECKS&lt;/font&gt;&lt;/b&gt;" style="text;html=1;align=center;verticalAlign=middle;resizable=0;points=[];autosize=1;strokeColor=none;fillColor=none;" vertex="1" parent="KU8lQrl2UFLvdZG20fSm-32">
          <mxGeometry x="7" width="130" height="40" as="geometry" />
        </mxCell>
        <mxCell id="KU8lQrl2UFLvdZG20fSm-23" value="&lt;b&gt;https://flashcards-aibentor.dev/decks&lt;/b&gt;" style="text;html=1;align=center;verticalAlign=middle;resizable=0;points=[];autosize=1;strokeColor=none;fillColor=none;" parent="KU8lQrl2UFLvdZG20fSm-32" vertex="1">
          <mxGeometry x="567" width="240" height="30" as="geometry" />
        </mxCell>
        <mxCell id="KU8lQrl2UFLvdZG20fSm-98" value="" style="group" parent="1" vertex="1" connectable="0">
          <mxGeometry x="1080" y="640" width="800" height="450" as="geometry" />
        </mxCell>
        <mxCell id="KU8lQrl2UFLvdZG20fSm-99" value="" style="rounded=0;whiteSpace=wrap;html=1;" parent="KU8lQrl2UFLvdZG20fSm-98" vertex="1">
          <mxGeometry width="800" height="450" as="geometry" />
        </mxCell>
        <mxCell id="KU8lQrl2UFLvdZG20fSm-100" value="" style="endArrow=none;html=1;rounded=0;entryX=1;entryY=0.111;entryDx=0;entryDy=0;entryPerimeter=0;" parent="KU8lQrl2UFLvdZG20fSm-98" target="KU8lQrl2UFLvdZG20fSm-99" edge="1">
          <mxGeometry width="50" height="50" relative="1" as="geometry">
            <mxPoint y="50.05000000000001" as="sourcePoint" />
            <mxPoint x="400" y="-40" as="targetPoint" />
          </mxGeometry>
        </mxCell>
        <mxCell id="KU8lQrl2UFLvdZG20fSm-101" value="HOME" style="text;html=1;align=center;verticalAlign=middle;resizable=0;points=[];autosize=1;strokeColor=none;fillColor=none;" parent="KU8lQrl2UFLvdZG20fSm-98" vertex="1">
          <mxGeometry x="600" y="10" width="60" height="30" as="geometry" />
        </mxCell>
        <mxCell id="KU8lQrl2UFLvdZG20fSm-102" value="MY DECKS" style="text;html=1;align=center;verticalAlign=middle;resizable=0;points=[];autosize=1;strokeColor=none;fillColor=none;" parent="KU8lQrl2UFLvdZG20fSm-98" vertex="1">
          <mxGeometry x="695" y="10" width="90" height="30" as="geometry" />
        </mxCell>
        <mxCell id="KU8lQrl2UFLvdZG20fSm-118" value="&lt;b style=&quot;font-size: 29px;&quot;&gt;My Decks&lt;/b&gt;" style="text;html=1;align=center;verticalAlign=middle;resizable=0;points=[];autosize=1;strokeColor=none;fillColor=none;fontSize=29;" parent="KU8lQrl2UFLvdZG20fSm-98" vertex="1">
          <mxGeometry x="320" y="70" width="160" height="50" as="geometry" />
        </mxCell>
        <mxCell id="KU8lQrl2UFLvdZG20fSm-119" value="" style="html=1;verticalLabelPosition=bottom;align=center;labelBackgroundColor=#ffffff;verticalAlign=top;strokeWidth=2;strokeColor=#000000;shadow=0;dashed=0;shape=mxgraph.ios7.icons.add;" parent="KU8lQrl2UFLvdZG20fSm-98" vertex="1">
          <mxGeometry x="718.5" y="370" width="43" height="40" as="geometry" />
        </mxCell>
        <mxCell id="KU8lQrl2UFLvdZG20fSm-132" value="" style="rounded=1;whiteSpace=wrap;html=1;" parent="KU8lQrl2UFLvdZG20fSm-98" vertex="1">
          <mxGeometry x="335" y="140" width="260" height="160" as="geometry" />
        </mxCell>
        <mxCell id="KU8lQrl2UFLvdZG20fSm-133" value="Verbs" style="text;html=1;align=center;verticalAlign=middle;resizable=0;points=[];autosize=1;strokeColor=none;fillColor=none;fontStyle=1;fontSize=20;" parent="KU8lQrl2UFLvdZG20fSm-98" vertex="1">
          <mxGeometry x="355" y="155" width="80" height="40" as="geometry" />
        </mxCell>
        <mxCell id="KU8lQrl2UFLvdZG20fSm-134" value="Verbs for studying..." style="text;html=1;align=center;verticalAlign=middle;resizable=0;points=[];autosize=1;strokeColor=none;fillColor=none;fontSize=16;" parent="KU8lQrl2UFLvdZG20fSm-98" vertex="1">
          <mxGeometry x="350" y="210" width="160" height="30" as="geometry" />
        </mxCell>
        <mxCell id="KU8lQrl2UFLvdZG20fSm-137" value="" style="shape=image;html=1;verticalAlign=top;verticalLabelPosition=bottom;labelBackgroundColor=#FF0000;imageAspect=0;aspect=fixed;image=https://cdn0.iconfinder.com/data/icons/google-material-design-3-0/48/ic_delete_forever_48px-128.png;fontColor=#FF0000;imageBackground=default;fillStyle=solid;imageBorder=none;labelBorderColor=none;" parent="KU8lQrl2UFLvdZG20fSm-98" vertex="1">
          <mxGeometry x="535" y="160" width="30" height="30" as="geometry" />
        </mxCell>
        <mxCell id="gzY5htLGLgs3vlSBRK8R-1" value="&lt;b&gt;&lt;font color=&quot;#007fff&quot;&gt;20 &lt;/font&gt;| &lt;font color=&quot;#ff0000&quot;&gt;1 &lt;/font&gt;| &lt;font color=&quot;#00cc00&quot;&gt;6&lt;/font&gt;&lt;/b&gt;" style="text;html=1;align=center;verticalAlign=middle;resizable=0;points=[];autosize=1;strokeColor=none;fillColor=none;" vertex="1" parent="KU8lQrl2UFLvdZG20fSm-98">
          <mxGeometry x="355" y="250" width="70" height="30" as="geometry" />
        </mxCell>
        <mxCell id="gzY5htLGLgs3vlSBRK8R-3" value="" style="group" vertex="1" connectable="0" parent="KU8lQrl2UFLvdZG20fSm-98">
          <mxGeometry x="50" y="140" width="260" height="160" as="geometry" />
        </mxCell>
        <mxCell id="KU8lQrl2UFLvdZG20fSm-126" value="" style="rounded=1;whiteSpace=wrap;html=1;" parent="gzY5htLGLgs3vlSBRK8R-3" vertex="1">
          <mxGeometry width="260" height="160" as="geometry" />
        </mxCell>
        <mxCell id="KU8lQrl2UFLvdZG20fSm-127" value="Verbs" style="text;html=1;align=center;verticalAlign=middle;resizable=0;points=[];autosize=1;strokeColor=none;fillColor=none;fontStyle=1;fontSize=20;" parent="gzY5htLGLgs3vlSBRK8R-3" vertex="1">
          <mxGeometry x="20" y="15" width="80" height="40" as="geometry" />
        </mxCell>
        <mxCell id="KU8lQrl2UFLvdZG20fSm-128" value="Verbs for studying..." style="text;html=1;align=center;verticalAlign=middle;resizable=0;points=[];autosize=1;strokeColor=none;fillColor=none;fontSize=16;" parent="gzY5htLGLgs3vlSBRK8R-3" vertex="1">
          <mxGeometry x="25" y="70" width="160" height="30" as="geometry" />
        </mxCell>
        <mxCell id="KU8lQrl2UFLvdZG20fSm-129" value="&lt;b&gt;&lt;font color=&quot;#007fff&quot;&gt;20 &lt;/font&gt;| &lt;font color=&quot;#ff0000&quot;&gt;1 &lt;/font&gt;| &lt;font color=&quot;#00cc00&quot;&gt;6&lt;/font&gt;&lt;/b&gt;" style="text;html=1;align=center;verticalAlign=middle;resizable=0;points=[];autosize=1;strokeColor=none;fillColor=none;" parent="gzY5htLGLgs3vlSBRK8R-3" vertex="1">
          <mxGeometry x="30" y="110" width="70" height="30" as="geometry" />
        </mxCell>
        <mxCell id="KU8lQrl2UFLvdZG20fSm-131" value="" style="shape=image;html=1;verticalAlign=top;verticalLabelPosition=bottom;labelBackgroundColor=#FF0000;imageAspect=0;aspect=fixed;image=https://cdn0.iconfinder.com/data/icons/google-material-design-3-0/48/ic_delete_forever_48px-128.png;fontColor=#FF0000;imageBackground=default;fillStyle=solid;imageBorder=none;labelBorderColor=none;" parent="gzY5htLGLgs3vlSBRK8R-3" vertex="1">
          <mxGeometry x="200" y="20" width="30" height="30" as="geometry" />
        </mxCell>
        <mxCell id="gzY5htLGLgs3vlSBRK8R-51" value="" style="sketch=0;pointerEvents=1;shadow=0;dashed=0;html=1;strokeColor=none;fillColor=#505050;labelPosition=center;verticalLabelPosition=bottom;verticalAlign=top;outlineConnect=0;align=center;shape=mxgraph.office.concepts.settings;" vertex="1" parent="KU8lQrl2UFLvdZG20fSm-98">
          <mxGeometry x="716" y="71" width="48" height="48" as="geometry" />
        </mxCell>
        <mxCell id="KU8lQrl2UFLvdZG20fSm-104" value="&lt;b&gt;https://flashcards-aibentor.dev/decks&lt;/b&gt;" style="text;html=1;align=center;verticalAlign=middle;resizable=0;points=[];autosize=1;strokeColor=none;fillColor=none;" parent="1" vertex="1">
          <mxGeometry x="1637" y="605" width="240" height="30" as="geometry" />
        </mxCell>
        <mxCell id="KU8lQrl2UFLvdZG20fSm-105" value="&lt;span style=&quot;font-size: 20px;&quot;&gt;&lt;b&gt;MY DECKS&lt;/b&gt;&lt;/span&gt;" style="text;html=1;align=center;verticalAlign=middle;resizable=0;points=[];autosize=1;strokeColor=none;fillColor=none;" parent="1" vertex="1">
          <mxGeometry x="1070" y="600" width="130" height="40" as="geometry" />
        </mxCell>
        <mxCell id="KU8lQrl2UFLvdZG20fSm-171" value="" style="group" parent="1" vertex="1" connectable="0">
          <mxGeometry x="77" y="1200" width="800" height="450" as="geometry" />
        </mxCell>
        <mxCell id="KU8lQrl2UFLvdZG20fSm-172" value="" style="rounded=0;whiteSpace=wrap;html=1;" parent="KU8lQrl2UFLvdZG20fSm-171" vertex="1">
          <mxGeometry width="800" height="450" as="geometry" />
        </mxCell>
        <mxCell id="KU8lQrl2UFLvdZG20fSm-173" value="" style="endArrow=none;html=1;rounded=0;entryX=1;entryY=0.111;entryDx=0;entryDy=0;entryPerimeter=0;" parent="KU8lQrl2UFLvdZG20fSm-171" target="KU8lQrl2UFLvdZG20fSm-172" edge="1">
          <mxGeometry width="50" height="50" relative="1" as="geometry">
            <mxPoint y="50.05000000000001" as="sourcePoint" />
            <mxPoint x="400" y="-40" as="targetPoint" />
          </mxGeometry>
        </mxCell>
        <mxCell id="KU8lQrl2UFLvdZG20fSm-174" value="HOME" style="text;html=1;align=center;verticalAlign=middle;resizable=0;points=[];autosize=1;strokeColor=none;fillColor=none;" parent="KU8lQrl2UFLvdZG20fSm-171" vertex="1">
          <mxGeometry x="600" y="10" width="60" height="30" as="geometry" />
        </mxCell>
        <mxCell id="KU8lQrl2UFLvdZG20fSm-175" value="MY DECKS" style="text;html=1;align=center;verticalAlign=middle;resizable=0;points=[];autosize=1;strokeColor=none;fillColor=none;" parent="KU8lQrl2UFLvdZG20fSm-171" vertex="1">
          <mxGeometry x="695" y="10" width="90" height="30" as="geometry" />
        </mxCell>
        <mxCell id="KU8lQrl2UFLvdZG20fSm-176" value="" style="rounded=1;whiteSpace=wrap;html=1;" parent="KU8lQrl2UFLvdZG20fSm-171" vertex="1">
          <mxGeometry x="133" y="114" width="510" height="100" as="geometry" />
        </mxCell>
        <mxCell id="KU8lQrl2UFLvdZG20fSm-177" value="Deck Name" style="text;html=1;align=center;verticalAlign=middle;resizable=0;points=[];autosize=1;strokeColor=none;fillColor=none;fontStyle=1;fontSize=20;" parent="KU8lQrl2UFLvdZG20fSm-171" vertex="1">
          <mxGeometry x="143" y="134" width="130" height="40" as="geometry" />
        </mxCell>
        <mxCell id="KU8lQrl2UFLvdZG20fSm-178" value="Deck Description" style="text;html=1;align=center;verticalAlign=middle;resizable=0;points=[];autosize=1;strokeColor=none;fillColor=none;fontSize=16;" parent="KU8lQrl2UFLvdZG20fSm-171" vertex="1">
          <mxGeometry x="148" y="164" width="140" height="30" as="geometry" />
        </mxCell>
        <mxCell id="KU8lQrl2UFLvdZG20fSm-186" value="" style="shape=image;html=1;verticalAlign=top;verticalLabelPosition=bottom;labelBackgroundColor=#ffffff;imageAspect=0;aspect=fixed;image=https://cdn1.iconfinder.com/data/icons/material-core/18/create-128.png" parent="KU8lQrl2UFLvdZG20fSm-171" vertex="1">
          <mxGeometry x="563" y="149" width="30" height="30" as="geometry" />
        </mxCell>
        <mxCell id="KU8lQrl2UFLvdZG20fSm-187" value="" style="endArrow=none;html=1;rounded=0;strokeColor=#808080;strokeWidth=3;" parent="KU8lQrl2UFLvdZG20fSm-171" edge="1">
          <mxGeometry width="50" height="50" relative="1" as="geometry">
            <mxPoint x="660" y="264" as="sourcePoint" />
            <mxPoint x="118" y="264.00181818181795" as="targetPoint" />
          </mxGeometry>
        </mxCell>
        <mxCell id="KU8lQrl2UFLvdZG20fSm-188" value="Add cards to start studying" style="text;html=1;align=center;verticalAlign=middle;resizable=0;points=[];autosize=1;strokeColor=none;fillColor=none;fontSize=16;" parent="KU8lQrl2UFLvdZG20fSm-171" vertex="1">
          <mxGeometry x="295" y="314" width="210" height="30" as="geometry" />
        </mxCell>
        <mxCell id="KU8lQrl2UFLvdZG20fSm-189" value="" style="html=1;verticalLabelPosition=bottom;align=center;labelBackgroundColor=#ffffff;verticalAlign=top;strokeWidth=2;strokeColor=#000000;shadow=0;dashed=0;shape=mxgraph.ios7.icons.add;" parent="KU8lQrl2UFLvdZG20fSm-171" vertex="1">
          <mxGeometry x="683" y="370" width="43" height="40" as="geometry" />
        </mxCell>
        <mxCell id="gzY5htLGLgs3vlSBRK8R-53" value="" style="sketch=0;pointerEvents=1;shadow=0;dashed=0;html=1;strokeColor=none;fillColor=#505050;labelPosition=center;verticalLabelPosition=bottom;verticalAlign=top;outlineConnect=0;align=center;shape=mxgraph.office.concepts.settings;" vertex="1" parent="KU8lQrl2UFLvdZG20fSm-171">
          <mxGeometry x="695" y="80" width="48" height="48" as="geometry" />
        </mxCell>
        <mxCell id="KU8lQrl2UFLvdZG20fSm-182" value="&lt;span style=&quot;font-size: 20px;&quot;&gt;&lt;b&gt;DECK- empty&lt;/b&gt;&lt;/span&gt;" style="text;html=1;align=center;verticalAlign=middle;resizable=0;points=[];autosize=1;strokeColor=none;fillColor=none;" parent="1" vertex="1">
          <mxGeometry x="65" y="1155" width="150" height="40" as="geometry" />
        </mxCell>
        <mxCell id="KU8lQrl2UFLvdZG20fSm-183" value="&lt;b&gt;https://flashcards-aibentor.dev/decks/{deck-id}&lt;/b&gt;" style="text;html=1;align=center;verticalAlign=middle;resizable=0;points=[];autosize=1;strokeColor=none;fillColor=none;" parent="1" vertex="1">
          <mxGeometry x="605" y="1160" width="290" height="30" as="geometry" />
        </mxCell>
        <mxCell id="KU8lQrl2UFLvdZG20fSm-204" value="" style="group" parent="1" vertex="1" connectable="0">
          <mxGeometry x="1080" y="1195" width="800" height="525" as="geometry" />
        </mxCell>
        <mxCell id="KU8lQrl2UFLvdZG20fSm-205" value="" style="rounded=0;whiteSpace=wrap;html=1;" parent="KU8lQrl2UFLvdZG20fSm-204" vertex="1">
          <mxGeometry width="800" height="525" as="geometry" />
        </mxCell>
        <mxCell id="KU8lQrl2UFLvdZG20fSm-206" value="" style="endArrow=none;html=1;rounded=0;entryX=1;entryY=0.111;entryDx=0;entryDy=0;entryPerimeter=0;" parent="KU8lQrl2UFLvdZG20fSm-204" target="KU8lQrl2UFLvdZG20fSm-205" edge="1">
          <mxGeometry width="50" height="50" relative="1" as="geometry">
            <mxPoint y="58.39166666666669" as="sourcePoint" />
            <mxPoint x="400" y="-46.66666666666667" as="targetPoint" />
          </mxGeometry>
        </mxCell>
        <mxCell id="KU8lQrl2UFLvdZG20fSm-207" value="HOME" style="text;html=1;align=center;verticalAlign=middle;resizable=0;points=[];autosize=1;strokeColor=none;fillColor=none;" parent="KU8lQrl2UFLvdZG20fSm-204" vertex="1">
          <mxGeometry x="600" y="11.666666666666668" width="60" height="30" as="geometry" />
        </mxCell>
        <mxCell id="KU8lQrl2UFLvdZG20fSm-208" value="MY DECKS" style="text;html=1;align=center;verticalAlign=middle;resizable=0;points=[];autosize=1;strokeColor=none;fillColor=none;" parent="KU8lQrl2UFLvdZG20fSm-204" vertex="1">
          <mxGeometry x="695" y="11.666666666666668" width="90" height="30" as="geometry" />
        </mxCell>
        <mxCell id="KU8lQrl2UFLvdZG20fSm-217" value="" style="rounded=1;whiteSpace=wrap;html=1;" parent="KU8lQrl2UFLvdZG20fSm-204" vertex="1">
          <mxGeometry x="145" y="130.66666666666669" width="510" height="116.66666666666667" as="geometry" />
        </mxCell>
        <mxCell id="KU8lQrl2UFLvdZG20fSm-218" value="Deck Name" style="text;html=1;align=center;verticalAlign=middle;resizable=0;points=[];autosize=1;strokeColor=none;fillColor=none;fontStyle=1;fontSize=20;" parent="KU8lQrl2UFLvdZG20fSm-204" vertex="1">
          <mxGeometry x="155" y="154" width="130" height="40" as="geometry" />
        </mxCell>
        <mxCell id="KU8lQrl2UFLvdZG20fSm-219" value="Deck Description" style="text;html=1;align=center;verticalAlign=middle;resizable=0;points=[];autosize=1;strokeColor=none;fillColor=none;fontSize=16;" parent="KU8lQrl2UFLvdZG20fSm-204" vertex="1">
          <mxGeometry x="160" y="189" width="140" height="30" as="geometry" />
        </mxCell>
        <mxCell id="KU8lQrl2UFLvdZG20fSm-220" value="" style="shape=image;html=1;verticalAlign=top;verticalLabelPosition=bottom;labelBackgroundColor=#ffffff;imageAspect=0;aspect=fixed;image=https://cdn1.iconfinder.com/data/icons/material-core/18/create-128.png" parent="KU8lQrl2UFLvdZG20fSm-204" vertex="1">
          <mxGeometry x="575" y="171.5" width="30" height="30" as="geometry" />
        </mxCell>
        <mxCell id="KU8lQrl2UFLvdZG20fSm-221" value="" style="endArrow=none;html=1;rounded=0;strokeColor=#808080;strokeWidth=3;" parent="KU8lQrl2UFLvdZG20fSm-204" edge="1">
          <mxGeometry width="50" height="50" relative="1" as="geometry">
            <mxPoint x="672" y="305.6666666666667" as="sourcePoint" />
            <mxPoint x="130" y="305.6687878787876" as="targetPoint" />
          </mxGeometry>
        </mxCell>
        <mxCell id="KU8lQrl2UFLvdZG20fSm-223" value="" style="html=1;verticalLabelPosition=bottom;align=center;labelBackgroundColor=#ffffff;verticalAlign=top;strokeWidth=2;strokeColor=#000000;shadow=0;dashed=0;shape=mxgraph.ios7.icons.add;" parent="KU8lQrl2UFLvdZG20fSm-204" vertex="1">
          <mxGeometry x="704.25" y="445.0033333333334" width="43" height="46.66666666666667" as="geometry" />
        </mxCell>
        <mxCell id="KU8lQrl2UFLvdZG20fSm-230" value="Study" style="html=1;shadow=0;dashed=0;shape=mxgraph.bootstrap.rrect;rSize=5;strokeColor=none;strokeWidth=1;fillColor=#0085FC;fontColor=#FFFFFF;whiteSpace=wrap;align=center;verticalAlign=middle;spacingLeft=0;fontStyle=0;fontSize=16;spacing=5;" parent="KU8lQrl2UFLvdZG20fSm-204" vertex="1">
          <mxGeometry x="537.5" y="265" width="68.5" height="34.17" as="geometry" />
        </mxCell>
        <mxCell id="KU8lQrl2UFLvdZG20fSm-209" value="" style="rounded=1;whiteSpace=wrap;html=1;" parent="KU8lQrl2UFLvdZG20fSm-204" vertex="1">
          <mxGeometry x="70" y="335" width="260" height="160" as="geometry" />
        </mxCell>
        <mxCell id="KU8lQrl2UFLvdZG20fSm-210" value="Tree" style="text;html=1;align=center;verticalAlign=middle;resizable=0;points=[];autosize=1;strokeColor=none;fillColor=none;fontStyle=1;fontSize=20;" parent="KU8lQrl2UFLvdZG20fSm-204" vertex="1">
          <mxGeometry x="170" y="380" width="60" height="40" as="geometry" />
        </mxCell>
        <mxCell id="KU8lQrl2UFLvdZG20fSm-211" value="Árbol" style="text;html=1;align=center;verticalAlign=middle;resizable=0;points=[];autosize=1;strokeColor=none;fillColor=none;fontSize=16;" parent="KU8lQrl2UFLvdZG20fSm-204" vertex="1">
          <mxGeometry x="170" y="435" width="60" height="30" as="geometry" />
        </mxCell>
        <mxCell id="KU8lQrl2UFLvdZG20fSm-214" value="" style="shape=image;html=1;verticalAlign=top;verticalLabelPosition=bottom;labelBackgroundColor=#FF0000;imageAspect=0;aspect=fixed;image=https://cdn0.iconfinder.com/data/icons/google-material-design-3-0/48/ic_delete_forever_48px-128.png;fontColor=#FF0000;imageBackground=default;fillStyle=solid;imageBorder=none;labelBorderColor=none;" parent="KU8lQrl2UFLvdZG20fSm-204" vertex="1">
          <mxGeometry x="270" y="355" width="30" height="30" as="geometry" />
        </mxCell>
        <mxCell id="KU8lQrl2UFLvdZG20fSm-235" value="" style="rounded=1;whiteSpace=wrap;html=1;" parent="KU8lQrl2UFLvdZG20fSm-204" vertex="1">
          <mxGeometry x="345" y="335.00000000000006" width="260" height="160" as="geometry" />
        </mxCell>
        <mxCell id="KU8lQrl2UFLvdZG20fSm-236" value="Blue" style="text;html=1;align=center;verticalAlign=middle;resizable=0;points=[];autosize=1;strokeColor=none;fillColor=none;fontStyle=1;fontSize=20;" parent="KU8lQrl2UFLvdZG20fSm-204" vertex="1">
          <mxGeometry x="440" y="380.00000000000006" width="70" height="40" as="geometry" />
        </mxCell>
        <mxCell id="KU8lQrl2UFLvdZG20fSm-237" value="Azul" style="text;html=1;align=center;verticalAlign=middle;resizable=0;points=[];autosize=1;strokeColor=none;fillColor=none;fontSize=16;" parent="KU8lQrl2UFLvdZG20fSm-204" vertex="1">
          <mxGeometry x="450" y="435.00000000000006" width="50" height="30" as="geometry" />
        </mxCell>
        <mxCell id="KU8lQrl2UFLvdZG20fSm-238" value="" style="shape=image;html=1;verticalAlign=top;verticalLabelPosition=bottom;labelBackgroundColor=#FF0000;imageAspect=0;aspect=fixed;image=https://cdn0.iconfinder.com/data/icons/google-material-design-3-0/48/ic_delete_forever_48px-128.png;fontColor=#FF0000;imageBackground=default;fillStyle=solid;imageBorder=none;labelBorderColor=none;" parent="KU8lQrl2UFLvdZG20fSm-204" vertex="1">
          <mxGeometry x="545" y="355.00000000000006" width="30" height="30" as="geometry" />
        </mxCell>
        <mxCell id="KU8lQrl2UFLvdZG20fSm-240" value="" style="strokeWidth=1;shadow=0;dashed=0;align=center;html=1;shape=mxgraph.mockup.rrect;rSize=10;fillColor=#F1F2F4;strokeColor=#ffffff;strokeWidth=2" parent="KU8lQrl2UFLvdZG20fSm-204" vertex="1">
          <mxGeometry x="206" y="265" width="290" height="33" as="geometry" />
        </mxCell>
        <mxCell id="KU8lQrl2UFLvdZG20fSm-241" value="All (2)" style="strokeWidth=1;shadow=0;dashed=0;align=center;html=1;shape=mxgraph.mockup.leftButton;rSize=10;fontSize=12;fontColor=#FFFFFF;fontStyle=0;fillColor=#808080;strokeColor=#ffffff;strokeWidth=2;resizeHeight=1;whiteSpace=wrap;" parent="KU8lQrl2UFLvdZG20fSm-240" vertex="1">
          <mxGeometry width="60" height="33" relative="1" as="geometry" />
        </mxCell>
        <mxCell id="KU8lQrl2UFLvdZG20fSm-242" value="New (1)&lt;span style=&quot;white-space: pre;&quot;&gt;&#x9;&lt;/span&gt;Scheduled (1)" style="rounded=0;fontSize=12;fontColor=#596780;fontStyle=0;fillColor=none;strokeColor=#ffffff;strokeWidth=2;resizeHeight=1;whiteSpace=wrap;html=1;" parent="KU8lQrl2UFLvdZG20fSm-240" vertex="1">
          <mxGeometry width="150" height="33" relative="1" as="geometry">
            <mxPoint x="60" as="offset" />
          </mxGeometry>
        </mxCell>
        <mxCell id="KU8lQrl2UFLvdZG20fSm-243" value="Memorized (1)" style="strokeWidth=1;shadow=0;dashed=0;align=center;html=1;shape=mxgraph.mockup.rightButton;rSize=10;fontSize=12;fontColor=#596780;fontStyle=0;fillColor=none;strokeColor=#ffffff;strokeWidth=2;resizeHeight=1;whiteSpace=wrap;" parent="KU8lQrl2UFLvdZG20fSm-240" vertex="1">
          <mxGeometry x="1" width="80" height="33" relative="1" as="geometry">
            <mxPoint x="-80" as="offset" />
          </mxGeometry>
        </mxCell>
        <mxCell id="gzY5htLGLgs3vlSBRK8R-37" value="" style="endArrow=none;html=1;rounded=0;strokeColor=#FFFFFF;strokeWidth=2;" edge="1" parent="KU8lQrl2UFLvdZG20fSm-240">
          <mxGeometry width="50" height="50" relative="1" as="geometry">
            <mxPoint x="115" y="30" as="sourcePoint" />
            <mxPoint x="115" as="targetPoint" />
          </mxGeometry>
        </mxCell>
        <mxCell id="gzY5htLGLgs3vlSBRK8R-54" value="" style="sketch=0;pointerEvents=1;shadow=0;dashed=0;html=1;strokeColor=none;fillColor=#505050;labelPosition=center;verticalLabelPosition=bottom;verticalAlign=top;outlineConnect=0;align=center;shape=mxgraph.office.concepts.settings;" vertex="1" parent="KU8lQrl2UFLvdZG20fSm-204">
          <mxGeometry x="704.25" y="82.67000000000007" width="48" height="48" as="geometry" />
        </mxCell>
        <mxCell id="KU8lQrl2UFLvdZG20fSm-215" value="&lt;span style=&quot;font-size: 20px;&quot;&gt;&lt;b&gt;DECK&lt;/b&gt;&lt;/span&gt;" style="text;html=1;align=center;verticalAlign=middle;resizable=0;points=[];autosize=1;strokeColor=none;fillColor=none;" parent="1" vertex="1">
          <mxGeometry x="1070" y="1155" width="80" height="40" as="geometry" />
        </mxCell>
        <mxCell id="KU8lQrl2UFLvdZG20fSm-216" value="&lt;b&gt;https://flashcards-aibentor.dev/decks/{deck-id}&lt;/b&gt;" style="text;html=1;align=center;verticalAlign=middle;resizable=0;points=[];autosize=1;strokeColor=none;fillColor=none;" parent="1" vertex="1">
          <mxGeometry x="1602.5" y="1155" width="290" height="30" as="geometry" />
        </mxCell>
        <mxCell id="KU8lQrl2UFLvdZG20fSm-260" value="" style="group" parent="1" vertex="1" connectable="0">
          <mxGeometry x="77" y="1840" width="800" height="450" as="geometry" />
        </mxCell>
        <mxCell id="KU8lQrl2UFLvdZG20fSm-261" value="" style="rounded=0;whiteSpace=wrap;html=1;" parent="KU8lQrl2UFLvdZG20fSm-260" vertex="1">
          <mxGeometry width="800" height="450" as="geometry" />
        </mxCell>
        <mxCell id="KU8lQrl2UFLvdZG20fSm-262" value="" style="endArrow=none;html=1;rounded=0;entryX=1;entryY=0.111;entryDx=0;entryDy=0;entryPerimeter=0;" parent="KU8lQrl2UFLvdZG20fSm-260" target="KU8lQrl2UFLvdZG20fSm-261" edge="1">
          <mxGeometry width="50" height="50" relative="1" as="geometry">
            <mxPoint y="50.05000000000001" as="sourcePoint" />
            <mxPoint x="400" y="-40" as="targetPoint" />
          </mxGeometry>
        </mxCell>
        <mxCell id="KU8lQrl2UFLvdZG20fSm-263" value="HOME" style="text;html=1;align=center;verticalAlign=middle;resizable=0;points=[];autosize=1;strokeColor=none;fillColor=none;" parent="KU8lQrl2UFLvdZG20fSm-260" vertex="1">
          <mxGeometry x="600" y="10" width="60" height="30" as="geometry" />
        </mxCell>
        <mxCell id="KU8lQrl2UFLvdZG20fSm-264" value="MY DECKS" style="text;html=1;align=center;verticalAlign=middle;resizable=0;points=[];autosize=1;strokeColor=none;fillColor=none;" parent="KU8lQrl2UFLvdZG20fSm-260" vertex="1">
          <mxGeometry x="695" y="10" width="90" height="30" as="geometry" />
        </mxCell>
        <mxCell id="KU8lQrl2UFLvdZG20fSm-277" value="Study - All" style="text;html=1;align=center;verticalAlign=middle;resizable=0;points=[];autosize=1;strokeColor=none;fillColor=none;fontSize=29;fontStyle=1" parent="KU8lQrl2UFLvdZG20fSm-260" vertex="1">
          <mxGeometry x="313" y="70" width="200" height="50" as="geometry" />
        </mxCell>
        <mxCell id="KU8lQrl2UFLvdZG20fSm-271" value="" style="rounded=1;whiteSpace=wrap;html=1;" parent="KU8lQrl2UFLvdZG20fSm-260" vertex="1">
          <mxGeometry x="123" y="140" width="580" height="100" as="geometry" />
        </mxCell>
        <mxCell id="KU8lQrl2UFLvdZG20fSm-272" value="Tree" style="text;html=1;align=center;verticalAlign=middle;resizable=0;points=[];autosize=1;strokeColor=none;fillColor=none;fontStyle=1;fontSize=20;" parent="KU8lQrl2UFLvdZG20fSm-260" vertex="1">
          <mxGeometry x="383" y="170" width="60" height="40" as="geometry" />
        </mxCell>
        <mxCell id="KU8lQrl2UFLvdZG20fSm-280" value="Show answer" style="html=1;shadow=0;dashed=0;shape=mxgraph.bootstrap.rrect;rSize=5;strokeColor=none;strokeWidth=1;fillColor=#0085FC;fontColor=#FFFFFF;whiteSpace=wrap;align=center;verticalAlign=middle;spacingLeft=0;fontStyle=0;fontSize=16;spacing=5;" parent="KU8lQrl2UFLvdZG20fSm-260" vertex="1">
          <mxGeometry x="344.5" y="370" width="137" height="40" as="geometry" />
        </mxCell>
        <mxCell id="gzY5htLGLgs3vlSBRK8R-41" value="" style="html=1;shadow=0;dashed=0;align=center;verticalAlign=middle;shape=mxgraph.arrows2.arrow;dy=0.6;dx=40;flipH=1;notch=0;fillColor=none;" vertex="1" parent="KU8lQrl2UFLvdZG20fSm-260">
          <mxGeometry x="23" y="70" width="70" height="30" as="geometry" />
        </mxCell>
        <mxCell id="KU8lQrl2UFLvdZG20fSm-275" value="&lt;span style=&quot;font-size: 20px;&quot;&gt;&lt;b&gt;STUDY ALL&lt;/b&gt;&lt;/span&gt;" style="text;html=1;align=center;verticalAlign=middle;resizable=0;points=[];autosize=1;strokeColor=none;fillColor=none;" parent="1" vertex="1">
          <mxGeometry x="90" y="1795" width="130" height="40" as="geometry" />
        </mxCell>
        <mxCell id="KU8lQrl2UFLvdZG20fSm-276" value="&lt;b&gt;https://flashcards-aibentor.dev/decks/study/all&lt;/b&gt;" style="text;html=1;align=center;verticalAlign=middle;resizable=0;points=[];autosize=1;strokeColor=none;fillColor=none;" parent="1" vertex="1">
          <mxGeometry x="590" y="1800" width="290" height="30" as="geometry" />
        </mxCell>
        <mxCell id="KU8lQrl2UFLvdZG20fSm-294" value="" style="group" parent="1" vertex="1" connectable="0">
          <mxGeometry x="1060" y="1840" width="800" height="450" as="geometry" />
        </mxCell>
        <mxCell id="KU8lQrl2UFLvdZG20fSm-295" value="" style="rounded=0;whiteSpace=wrap;html=1;" parent="KU8lQrl2UFLvdZG20fSm-294" vertex="1">
          <mxGeometry width="800" height="450" as="geometry" />
        </mxCell>
        <mxCell id="KU8lQrl2UFLvdZG20fSm-296" value="" style="endArrow=none;html=1;rounded=0;entryX=1;entryY=0.111;entryDx=0;entryDy=0;entryPerimeter=0;" parent="KU8lQrl2UFLvdZG20fSm-294" target="KU8lQrl2UFLvdZG20fSm-295" edge="1">
          <mxGeometry width="50" height="50" relative="1" as="geometry">
            <mxPoint y="50.05000000000001" as="sourcePoint" />
            <mxPoint x="400" y="-40" as="targetPoint" />
          </mxGeometry>
        </mxCell>
        <mxCell id="KU8lQrl2UFLvdZG20fSm-297" value="HOME" style="text;html=1;align=center;verticalAlign=middle;resizable=0;points=[];autosize=1;strokeColor=none;fillColor=none;" parent="KU8lQrl2UFLvdZG20fSm-294" vertex="1">
          <mxGeometry x="600" y="10" width="60" height="30" as="geometry" />
        </mxCell>
        <mxCell id="KU8lQrl2UFLvdZG20fSm-298" value="MY DECKS" style="text;html=1;align=center;verticalAlign=middle;resizable=0;points=[];autosize=1;strokeColor=none;fillColor=none;" parent="KU8lQrl2UFLvdZG20fSm-294" vertex="1">
          <mxGeometry x="695" y="10" width="90" height="30" as="geometry" />
        </mxCell>
        <mxCell id="KU8lQrl2UFLvdZG20fSm-313" value="Study - Verbs" style="text;html=1;align=center;verticalAlign=middle;resizable=0;points=[];autosize=1;strokeColor=none;fillColor=none;fontSize=29;fontStyle=1" parent="KU8lQrl2UFLvdZG20fSm-294" vertex="1">
          <mxGeometry x="280" y="70" width="240" height="50" as="geometry" />
        </mxCell>
        <mxCell id="KU8lQrl2UFLvdZG20fSm-314" value="" style="rounded=1;whiteSpace=wrap;html=1;" parent="KU8lQrl2UFLvdZG20fSm-294" vertex="1">
          <mxGeometry x="110" y="141" width="580" height="100" as="geometry" />
        </mxCell>
        <mxCell id="KU8lQrl2UFLvdZG20fSm-315" value="Swim" style="text;html=1;align=center;verticalAlign=middle;resizable=0;points=[];autosize=1;strokeColor=none;fillColor=none;fontStyle=1;fontSize=20;" parent="KU8lQrl2UFLvdZG20fSm-294" vertex="1">
          <mxGeometry x="360" y="171" width="80" height="40" as="geometry" />
        </mxCell>
        <mxCell id="gzY5htLGLgs3vlSBRK8R-39" value="Show answer" style="html=1;shadow=0;dashed=0;shape=mxgraph.bootstrap.rrect;rSize=5;strokeColor=none;strokeWidth=1;fillColor=#0085FC;fontColor=#FFFFFF;whiteSpace=wrap;align=center;verticalAlign=middle;spacingLeft=0;fontStyle=0;fontSize=16;spacing=5;" vertex="1" parent="KU8lQrl2UFLvdZG20fSm-294">
          <mxGeometry x="331.5" y="350" width="137" height="40" as="geometry" />
        </mxCell>
        <mxCell id="gzY5htLGLgs3vlSBRK8R-43" value="" style="html=1;shadow=0;dashed=0;align=center;verticalAlign=middle;shape=mxgraph.arrows2.arrow;dy=0.6;dx=40;flipH=1;notch=0;fillColor=none;" vertex="1" parent="KU8lQrl2UFLvdZG20fSm-294">
          <mxGeometry x="30" y="80" width="70" height="30" as="geometry" />
        </mxCell>
        <mxCell id="KU8lQrl2UFLvdZG20fSm-309" value="&lt;span style=&quot;font-size: 20px;&quot;&gt;&lt;b&gt;STUDY DECK&lt;/b&gt;&lt;/span&gt;" style="text;html=1;align=center;verticalAlign=middle;resizable=0;points=[];autosize=1;strokeColor=none;fillColor=none;" parent="1" vertex="1">
          <mxGeometry x="1070" y="1800" width="150" height="40" as="geometry" />
        </mxCell>
        <mxCell id="KU8lQrl2UFLvdZG20fSm-312" value="&lt;b&gt;https://flashcards-aibentor.dev/decks/study/{deck-id}&lt;/b&gt;" style="text;html=1;align=center;verticalAlign=middle;resizable=0;points=[];autosize=1;strokeColor=none;fillColor=none;" parent="1" vertex="1">
          <mxGeometry x="1542" y="1805" width="330" height="30" as="geometry" />
        </mxCell>
        <mxCell id="KU8lQrl2UFLvdZG20fSm-319" value="" style="group" parent="1" vertex="1" connectable="0">
          <mxGeometry x="2308.5" y="311" width="800" height="660" as="geometry" />
        </mxCell>
        <mxCell id="KU8lQrl2UFLvdZG20fSm-320" value="" style="rounded=0;whiteSpace=wrap;html=1;" parent="KU8lQrl2UFLvdZG20fSm-319" vertex="1">
          <mxGeometry width="800" height="660" as="geometry" />
        </mxCell>
        <mxCell id="KU8lQrl2UFLvdZG20fSm-321" value="" style="endArrow=none;html=1;rounded=0;" parent="KU8lQrl2UFLvdZG20fSm-319" edge="1">
          <mxGeometry width="50" height="50" relative="1" as="geometry">
            <mxPoint y="50.05000000000001" as="sourcePoint" />
            <mxPoint x="800" y="50" as="targetPoint" />
          </mxGeometry>
        </mxCell>
        <mxCell id="KU8lQrl2UFLvdZG20fSm-322" value="HOME" style="text;html=1;align=center;verticalAlign=middle;resizable=0;points=[];autosize=1;strokeColor=none;fillColor=none;" parent="KU8lQrl2UFLvdZG20fSm-319" vertex="1">
          <mxGeometry x="600" y="10" width="60" height="30" as="geometry" />
        </mxCell>
        <mxCell id="KU8lQrl2UFLvdZG20fSm-323" value="MY DECKS" style="text;html=1;align=center;verticalAlign=middle;resizable=0;points=[];autosize=1;strokeColor=none;fillColor=none;" parent="KU8lQrl2UFLvdZG20fSm-319" vertex="1">
          <mxGeometry x="695" y="10" width="90" height="30" as="geometry" />
        </mxCell>
        <mxCell id="KU8lQrl2UFLvdZG20fSm-338" value="Study - All" style="text;html=1;align=center;verticalAlign=middle;resizable=0;points=[];autosize=1;strokeColor=none;fillColor=none;fontSize=29;fontStyle=1" parent="KU8lQrl2UFLvdZG20fSm-319" vertex="1">
          <mxGeometry x="310" y="69" width="200" height="50" as="geometry" />
        </mxCell>
        <mxCell id="KU8lQrl2UFLvdZG20fSm-339" value="" style="rounded=1;whiteSpace=wrap;html=1;" parent="KU8lQrl2UFLvdZG20fSm-319" vertex="1">
          <mxGeometry x="120" y="139" width="580" height="100" as="geometry" />
        </mxCell>
        <mxCell id="KU8lQrl2UFLvdZG20fSm-340" value="Tree" style="text;html=1;align=center;verticalAlign=middle;resizable=0;points=[];autosize=1;strokeColor=none;fillColor=none;fontStyle=1;fontSize=20;" parent="KU8lQrl2UFLvdZG20fSm-319" vertex="1">
          <mxGeometry x="380" y="169" width="60" height="40" as="geometry" />
        </mxCell>
        <mxCell id="KU8lQrl2UFLvdZG20fSm-341" value="" style="rounded=1;whiteSpace=wrap;html=1;" parent="KU8lQrl2UFLvdZG20fSm-319" vertex="1">
          <mxGeometry x="120" y="249" width="580" height="100" as="geometry" />
        </mxCell>
        <mxCell id="KU8lQrl2UFLvdZG20fSm-342" value="&lt;span style=&quot;font-weight: normal;&quot;&gt;Árbol&lt;/span&gt;" style="text;html=1;align=center;verticalAlign=middle;resizable=0;points=[];autosize=1;strokeColor=none;fillColor=none;fontStyle=1;fontSize=20;" parent="KU8lQrl2UFLvdZG20fSm-319" vertex="1">
          <mxGeometry x="375" y="279" width="70" height="40" as="geometry" />
        </mxCell>
        <mxCell id="KU8lQrl2UFLvdZG20fSm-347" value="" style="endArrow=none;html=1;rounded=0;strokeColor=#808080;strokeWidth=3;" parent="KU8lQrl2UFLvdZG20fSm-319" edge="1">
          <mxGeometry width="50" height="50" relative="1" as="geometry">
            <mxPoint x="682.5" y="469" as="sourcePoint" />
            <mxPoint x="140.5" y="469.0018181818177" as="targetPoint" />
          </mxGeometry>
        </mxCell>
        <mxCell id="KU8lQrl2UFLvdZG20fSm-348" value="What has been your ease?" style="text;html=1;align=center;verticalAlign=middle;resizable=0;points=[];autosize=1;strokeColor=none;fillColor=none;fontSize=19;" parent="KU8lQrl2UFLvdZG20fSm-319" vertex="1">
          <mxGeometry x="286.5" y="479" width="250" height="40" as="geometry" />
        </mxCell>
        <mxCell id="KU8lQrl2UFLvdZG20fSm-354" value="Very hard&lt;div&gt;&amp;lt; 1min&lt;/div&gt;" style="html=1;shadow=0;dashed=0;shape=mxgraph.bootstrap.rrect;rSize=5;strokeColor=none;strokeWidth=1;fillColor=#DB2843;fontColor=#FFFFFF;whiteSpace=wrap;align=center;verticalAlign=middle;spacingLeft=0;fontStyle=0;fontSize=16;spacing=5;" parent="KU8lQrl2UFLvdZG20fSm-319" vertex="1">
          <mxGeometry x="101.5" y="529" width="100" height="40" as="geometry" />
        </mxCell>
        <mxCell id="KU8lQrl2UFLvdZG20fSm-355" value="Hard&lt;div&gt;&amp;lt; 5min&lt;/div&gt;" style="html=1;shadow=0;dashed=0;shape=mxgraph.bootstrap.rrect;rSize=5;strokeColor=none;strokeWidth=1;fillColor=#FFBC26;fontColor=#FFFFFF;whiteSpace=wrap;align=center;verticalAlign=middle;spacingLeft=0;fontStyle=0;fontSize=16;spacing=5;" parent="KU8lQrl2UFLvdZG20fSm-319" vertex="1">
          <mxGeometry x="273" y="529" width="100" height="40" as="geometry" />
        </mxCell>
        <mxCell id="KU8lQrl2UFLvdZG20fSm-353" value="Easy&lt;div&gt;&amp;lt; 10min&lt;/div&gt;" style="html=1;shadow=0;dashed=0;shape=mxgraph.bootstrap.rrect;rSize=5;strokeColor=none;strokeWidth=1;fillColor=#33A64C;fontColor=#FFFFFF;whiteSpace=wrap;align=center;verticalAlign=middle;spacingLeft=0;fontStyle=0;fontSize=16;spacing=5;" parent="KU8lQrl2UFLvdZG20fSm-319" vertex="1">
          <mxGeometry x="436.5" y="529" width="100" height="40" as="geometry" />
        </mxCell>
        <mxCell id="KU8lQrl2UFLvdZG20fSm-352" value="Very easy&lt;div&gt;3 days&lt;/div&gt;" style="html=1;shadow=0;dashed=0;shape=mxgraph.bootstrap.rrect;rSize=5;strokeColor=none;strokeWidth=1;fillColor=#0085FC;fontColor=#FFFFFF;whiteSpace=wrap;align=center;verticalAlign=middle;spacingLeft=0;fontStyle=0;fontSize=16;spacing=5;" parent="KU8lQrl2UFLvdZG20fSm-319" vertex="1">
          <mxGeometry x="598.5" y="529" width="100" height="40" as="geometry" />
        </mxCell>
        <mxCell id="gzY5htLGLgs3vlSBRK8R-40" value="" style="html=1;shadow=0;dashed=0;align=center;verticalAlign=middle;shape=mxgraph.arrows2.arrow;dy=0.6;dx=40;flipH=1;notch=0;fillColor=none;" vertex="1" parent="KU8lQrl2UFLvdZG20fSm-319">
          <mxGeometry x="31.5" y="69" width="70" height="30" as="geometry" />
        </mxCell>
        <mxCell id="KU8lQrl2UFLvdZG20fSm-334" value="&lt;span style=&quot;font-size: 20px;&quot;&gt;&lt;b&gt;STUDY ALL&lt;/b&gt;&lt;/span&gt;" style="text;html=1;align=center;verticalAlign=middle;resizable=0;points=[];autosize=1;strokeColor=none;fillColor=none;" parent="1" vertex="1">
          <mxGeometry x="2318.5" y="230" width="130" height="40" as="geometry" />
        </mxCell>
        <mxCell id="KU8lQrl2UFLvdZG20fSm-335" value="&lt;b&gt;https://flashcards-aibentor.dev/decks/study/all&lt;/b&gt;" style="text;html=1;align=center;verticalAlign=middle;resizable=0;points=[];autosize=1;strokeColor=none;fillColor=none;" parent="1" vertex="1">
          <mxGeometry x="2818.5" y="235" width="290" height="30" as="geometry" />
        </mxCell>
        <mxCell id="KU8lQrl2UFLvdZG20fSm-336" value="&lt;span style=&quot;font-size: 20px;&quot;&gt;&lt;b&gt;STUDY DECK&lt;/b&gt;&lt;/span&gt;" style="text;html=1;align=center;verticalAlign=middle;resizable=0;points=[];autosize=1;strokeColor=none;fillColor=none;" parent="1" vertex="1">
          <mxGeometry x="2308.5" y="270" width="150" height="40" as="geometry" />
        </mxCell>
        <mxCell id="KU8lQrl2UFLvdZG20fSm-337" value="&lt;b&gt;https://flashcards-aibentor.dev/decks/study/{deck-id}&lt;/b&gt;" style="text;html=1;align=center;verticalAlign=middle;resizable=0;points=[];autosize=1;strokeColor=none;fillColor=none;" parent="1" vertex="1">
          <mxGeometry x="2795.25" y="275" width="330" height="30" as="geometry" />
        </mxCell>
        <mxCell id="KU8lQrl2UFLvdZG20fSm-386" value="&lt;span style=&quot;font-size: 29px;&quot;&gt;&lt;b style=&quot;font-size: 29px;&quot;&gt;POP UPS&lt;/b&gt;&lt;/span&gt;" style="text;html=1;align=center;verticalAlign=middle;resizable=0;points=[];autosize=1;strokeColor=none;fillColor=none;fontSize=29;" parent="1" vertex="1">
          <mxGeometry x="2615" y="1700" width="150" height="50" as="geometry" />
        </mxCell>
        <mxCell id="KU8lQrl2UFLvdZG20fSm-387" value="" style="rounded=1;whiteSpace=wrap;html=1;" parent="1" vertex="1">
          <mxGeometry x="2010" y="1900" width="480" height="390" as="geometry" />
        </mxCell>
        <mxCell id="KU8lQrl2UFLvdZG20fSm-396" value="Name" style="fillColor=none;strokeColor=none;align=left;fontSize=16;fontStyle=1" parent="1" vertex="1">
          <mxGeometry width="260" height="40" relative="1" as="geometry">
            <mxPoint x="2086" y="1960" as="offset" />
          </mxGeometry>
        </mxCell>
        <mxCell id="KU8lQrl2UFLvdZG20fSm-397" value="" style="html=1;shadow=0;dashed=0;shape=mxgraph.bootstrap.rrect;rSize=5;fillColor=none;strokeColor=#999999;align=left;spacing=15;fontSize=14;fontColor=#6C767D;" parent="1" vertex="1">
          <mxGeometry width="330" height="30" relative="1" as="geometry">
            <mxPoint x="2086" y="2000" as="offset" />
          </mxGeometry>
        </mxCell>
        <mxCell id="KU8lQrl2UFLvdZG20fSm-399" value="Description" style="fillColor=none;strokeColor=none;align=left;fontSize=16;fontStyle=1" parent="1" vertex="1">
          <mxGeometry width="260" height="40" relative="1" as="geometry">
            <mxPoint x="2086" y="2045" as="offset" />
          </mxGeometry>
        </mxCell>
        <mxCell id="KU8lQrl2UFLvdZG20fSm-400" value="" style="html=1;shadow=0;dashed=0;shape=mxgraph.bootstrap.rrect;rSize=5;fillColor=none;strokeColor=#999999;align=left;spacing=15;fontSize=14;fontColor=#6C767D;" parent="1" vertex="1">
          <mxGeometry width="330" height="30" relative="1" as="geometry">
            <mxPoint x="2086" y="2085" as="offset" />
          </mxGeometry>
        </mxCell>
        <mxCell id="KU8lQrl2UFLvdZG20fSm-402" value="&lt;font style=&quot;font-size: 16px;&quot;&gt;Save&lt;/font&gt;" style="html=1;shadow=0;dashed=0;shape=mxgraph.bootstrap.rrect;rSize=5;fillColor=#0085FC;strokeColor=none;align=center;fontSize=14;fontColor=#FFFFFF;" parent="1" vertex="1">
          <mxGeometry width="80" height="40" relative="1" as="geometry">
            <mxPoint x="2336" y="2152" as="offset" />
          </mxGeometry>
        </mxCell>
        <mxCell id="KU8lQrl2UFLvdZG20fSm-403" value="Cancel" style="html=1;shadow=0;dashed=0;shape=mxgraph.bootstrap.rrect;rSize=5;strokeColor=none;strokeWidth=1;fillColor=#DB2843;fontColor=#FFFFFF;whiteSpace=wrap;align=center;verticalAlign=middle;spacingLeft=0;fontStyle=0;fontSize=16;spacing=5;" parent="1" vertex="1">
          <mxGeometry x="2085" y="2152" width="80" height="40" as="geometry" />
        </mxCell>
        <mxCell id="KU8lQrl2UFLvdZG20fSm-404" value="" style="rounded=1;whiteSpace=wrap;html=1;" parent="1" vertex="1">
          <mxGeometry x="2891.75" y="1910" width="480" height="390" as="geometry" />
        </mxCell>
        <mxCell id="KU8lQrl2UFLvdZG20fSm-405" value="Question" style="fillColor=none;strokeColor=none;align=left;fontSize=16;fontStyle=1" parent="1" vertex="1">
          <mxGeometry x="2966.75" y="1970" width="260" height="40" as="geometry" />
        </mxCell>
        <mxCell id="KU8lQrl2UFLvdZG20fSm-406" value="" style="html=1;shadow=0;dashed=0;shape=mxgraph.bootstrap.rrect;rSize=5;fillColor=none;strokeColor=#999999;align=left;spacing=15;fontSize=14;fontColor=#6C767D;" parent="1" vertex="1">
          <mxGeometry x="2966.75" y="2010" width="330" height="30" as="geometry" />
        </mxCell>
        <mxCell id="KU8lQrl2UFLvdZG20fSm-407" value="Answer" style="fillColor=none;strokeColor=none;align=left;fontSize=16;fontStyle=1" parent="1" vertex="1">
          <mxGeometry x="2966.75" y="2055" width="260" height="40" as="geometry" />
        </mxCell>
        <mxCell id="KU8lQrl2UFLvdZG20fSm-408" value="" style="html=1;shadow=0;dashed=0;shape=mxgraph.bootstrap.rrect;rSize=5;fillColor=none;strokeColor=#999999;align=left;spacing=15;fontSize=14;fontColor=#6C767D;" parent="1" vertex="1">
          <mxGeometry x="2966.75" y="2095" width="330" height="30" as="geometry" />
        </mxCell>
        <mxCell id="KU8lQrl2UFLvdZG20fSm-409" value="&lt;font style=&quot;font-size: 16px;&quot;&gt;Save&lt;/font&gt;" style="html=1;shadow=0;dashed=0;shape=mxgraph.bootstrap.rrect;rSize=5;fillColor=#0085FC;strokeColor=none;align=center;fontSize=14;fontColor=#FFFFFF;" parent="1" vertex="1">
          <mxGeometry x="3216.75" y="2162" width="80" height="40" as="geometry" />
        </mxCell>
        <mxCell id="KU8lQrl2UFLvdZG20fSm-410" value="Cancel" style="html=1;shadow=0;dashed=0;shape=mxgraph.bootstrap.rrect;rSize=5;strokeColor=none;strokeWidth=1;fillColor=#DB2843;fontColor=#FFFFFF;whiteSpace=wrap;align=center;verticalAlign=middle;spacingLeft=0;fontStyle=0;fontSize=16;spacing=5;" parent="1" vertex="1">
          <mxGeometry x="2966.75" y="2162" width="80" height="40" as="geometry" />
        </mxCell>
        <mxCell id="KU8lQrl2UFLvdZG20fSm-411" value="&lt;span style=&quot;font-size: 20px;&quot;&gt;&lt;b&gt;CREATE / EDIT - deck&lt;/b&gt;&lt;/span&gt;" style="text;html=1;align=center;verticalAlign=middle;resizable=0;points=[];autosize=1;strokeColor=none;fillColor=none;" parent="1" vertex="1">
          <mxGeometry x="2000" y="1830" width="230" height="40" as="geometry" />
        </mxCell>
        <mxCell id="KU8lQrl2UFLvdZG20fSm-413" value="&lt;b&gt;https://flashcards-aibentor.dev/decks&lt;/b&gt;" style="text;html=1;align=center;verticalAlign=middle;resizable=0;points=[];autosize=1;strokeColor=none;fillColor=none;" parent="1" vertex="1">
          <mxGeometry x="2300" y="1815" width="240" height="30" as="geometry" />
        </mxCell>
        <mxCell id="KU8lQrl2UFLvdZG20fSm-414" value="&lt;b&gt;https://flashcards-aibentor.dev/decks/{deck-id}&lt;/b&gt;" style="text;html=1;align=center;verticalAlign=middle;resizable=0;points=[];autosize=1;strokeColor=none;fillColor=none;" parent="1" vertex="1">
          <mxGeometry x="2295" y="1850" width="290" height="30" as="geometry" />
        </mxCell>
        <mxCell id="KU8lQrl2UFLvdZG20fSm-416" value="&lt;span style=&quot;font-size: 20px;&quot;&gt;&lt;b&gt;CREATE / EDIT - card&lt;/b&gt;&lt;/span&gt;" style="text;html=1;align=center;verticalAlign=middle;resizable=0;points=[];autosize=1;strokeColor=none;fillColor=none;" parent="1" vertex="1">
          <mxGeometry x="2822" y="1840" width="230" height="40" as="geometry" />
        </mxCell>
        <mxCell id="KU8lQrl2UFLvdZG20fSm-418" value="&lt;b&gt;https://flashcards-aibentor.dev/decks/{deck-id}&lt;/b&gt;" style="text;html=1;align=center;verticalAlign=middle;resizable=0;points=[];autosize=1;strokeColor=none;fillColor=none;" parent="1" vertex="1">
          <mxGeometry x="3117" y="1845" width="290" height="30" as="geometry" />
        </mxCell>
        <mxCell id="KU8lQrl2UFLvdZG20fSm-419" value="" style="rounded=0;whiteSpace=wrap;html=1;" parent="1" vertex="1">
          <mxGeometry x="280" y="25" width="358.5" height="70" as="geometry" />
        </mxCell>
        <mxCell id="KU8lQrl2UFLvdZG20fSm-420" value="&lt;b&gt;&lt;font style=&quot;font-size: 20px;&quot;&gt;COMPONENTS TO EDIT&lt;/font&gt;&lt;/b&gt;" style="text;html=1;align=center;verticalAlign=middle;resizable=0;points=[];autosize=1;strokeColor=none;fillColor=none;fontSize=29;" parent="1" vertex="1">
          <mxGeometry x="334.25" y="35" width="250" height="50" as="geometry" />
        </mxCell>
        <mxCell id="gzY5htLGLgs3vlSBRK8R-45" style="edgeStyle=orthogonalEdgeStyle;rounded=0;orthogonalLoop=1;jettySize=auto;html=1;" edge="1" parent="1" source="gzY5htLGLgs3vlSBRK8R-44" target="gzY5htLGLgs3vlSBRK8R-52">
          <mxGeometry relative="1" as="geometry" />
        </mxCell>
        <mxCell id="gzY5htLGLgs3vlSBRK8R-44" value="&lt;font style=&quot;font-size: 16px;&quot;&gt;- Study all&lt;/font&gt;&lt;div style=&quot;text-align: left;&quot;&gt;&lt;font style=&quot;font-size: 16px;&quot;&gt;- Import deck&lt;/font&gt;&lt;/div&gt;&lt;div style=&quot;text-align: left;&quot;&gt;&lt;span style=&quot;font-size: 16px;&quot;&gt;- Add deck&lt;/span&gt;&lt;/div&gt;" style="ellipse;whiteSpace=wrap;html=1;" vertex="1" parent="1">
          <mxGeometry x="895" y="840" width="170" height="120" as="geometry" />
        </mxCell>
        <mxCell id="gzY5htLGLgs3vlSBRK8R-56" style="edgeStyle=orthogonalEdgeStyle;rounded=0;orthogonalLoop=1;jettySize=auto;html=1;" edge="1" parent="1" source="gzY5htLGLgs3vlSBRK8R-55" target="gzY5htLGLgs3vlSBRK8R-53">
          <mxGeometry relative="1" as="geometry" />
        </mxCell>
        <mxCell id="gzY5htLGLgs3vlSBRK8R-55" value="&lt;font style=&quot;font-size: 16px;&quot;&gt;- Study deck&lt;/font&gt;&lt;div style=&quot;text-align: left;&quot;&gt;&lt;font style=&quot;font-size: 16px;&quot;&gt;- Export deck&lt;/font&gt;&lt;/div&gt;&lt;div style=&quot;text-align: left;&quot;&gt;&lt;span style=&quot;font-size: 16px;&quot;&gt;- Add card&lt;/span&gt;&lt;/div&gt;&lt;div style=&quot;text-align: left;&quot;&gt;&lt;span style=&quot;font-size: 16px;&quot;&gt;- Delete deck&lt;/span&gt;&lt;/div&gt;&lt;div style=&quot;text-align: left;&quot;&gt;&lt;span style=&quot;font-size: 16px;&quot;&gt;- Edit deck&lt;/span&gt;&lt;/div&gt;" style="ellipse;whiteSpace=wrap;html=1;" vertex="1" parent="1">
          <mxGeometry x="895" y="1260" width="170" height="120" as="geometry" />
        </mxCell>
      </root>
    </mxGraphModel>
  </diagram>
</mxfile>
